# xmcd
#
# Track frame offsets:
#	150
#	11820
#	25663
#	35574
#	48957
#	61152
#	73269
#	86332
#	99809
#	115829
#	133161
#	149657
#
# Disc length: 2239 seconds
#
# Revision: 0
# Processed by: cddbd v1.5.2PL0 Copyright (c) Steve Scherf et al.
# Submitted via: EasyCDDAExtractor 16.0.9.1
#
DISCID=a108bd0c
DTITLE=Ray Charles - N-080 Ray Charles  Friendship (2005)
DYEAR=1900
DGENRE=R&B
TTITLE0=Two Old Cats Like Us (With Hank Williams Jr.)
TTITLE1=This Old Heart (With Oak Ridge Boys)
TTITLE2=We Didn't See A Thing (With G. Jones C.)
TTITLE3=Who Cares (With Janie Fricke)
TTITLE4=Rock And Roll Shoes (With B.J. Thomas)
TTITLE5=Friendship (With Ricky Scaggs)
TTITLE6=Ain't Gonna Worry My Mind (With Mickey Gilley)
TTITLE7=Hotel Room (With Merle Haggard)
TTITLE8=Crazy Old Soldier (With Johnny Cash)
TTITLE9=Seven Spanish Soldiers (With Willie Nelson)
TTITLE10=Everybody Gets The Blues (With Tony Bennet)
TTITLE11=Baby Grand (With Billy Joel)
EXTD=
EXTT0=
EXTT1=
EXTT2=
EXTT3=
EXTT4=
EXTT5=
EXTT6=
EXTT7=
EXTT8=
EXTT9=
EXTT10=
EXTT11=
PLAYORDER=
